<svg width="16" height="16" viewBox="0 0 16 16" fill="none" xmlns="http://www.w3.org/2000/svg">
<path d="M3.625 0.0833282C5.58101 0.0833282 7.16667 1.66899 7.16667 3.62499V7.16666H3.625C1.66899 7.16666 0.0833321 5.581 0.0833321 3.62499C0.0833321 1.66899 1.66899 0.0833282 3.625 0.0833282ZM5.5 5.49999V3.62499C5.5 2.58946 4.66053 1.74999 3.625 1.74999C2.58947 1.74999 1.75 2.58946 1.75 3.62499C1.75 4.66053 2.58947 5.49999 3.625 5.49999H5.5ZM3.625 8.83333H7.16667V12.375C7.16667 14.331 5.58101 15.9167 3.625 15.9167C1.66899 15.9167 0.0833321 14.331 0.0833321 12.375C0.0833321 10.419 1.66899 8.83333 3.625 8.83333ZM3.625 10.5C2.58947 10.5 1.75 11.3395 1.75 12.375C1.75 13.4105 2.58947 14.25 3.625 14.25C4.66053 14.25 5.5 13.4105 5.5 12.375V10.5H3.625ZM12.375 0.0833282C14.331 0.0833282 15.9167 1.66899 15.9167 3.62499C15.9167 5.581 14.331 7.16666 12.375 7.16666H8.83333V3.62499C8.83333 1.66899 10.419 0.0833282 12.375 0.0833282ZM12.375 5.49999C13.4105 5.49999 14.25 4.66053 14.25 3.62499C14.25 2.58946 13.4105 1.74999 12.375 1.74999C11.3395 1.74999 10.5 2.58946 10.5 3.62499V5.49999H12.375ZM8.83333 8.83333H12.375C14.331 8.83333 15.9167 10.419 15.9167 12.375C15.9167 14.331 14.331 15.9167 12.375 15.9167C10.419 15.9167 8.83333 14.331 8.83333 12.375V8.83333ZM10.5 10.5V12.375C10.5 13.4105 11.3395 14.25 12.375 14.25C13.4105 14.25 14.25 13.4105 14.25 12.375C14.25 11.3395 13.4105 10.5 12.375 10.5H10.5Z" fill="#5C5C5C"/>
</svg>
