<svg width="15" height="16" viewBox="0 0 15 16" fill="none" xmlns="http://www.w3.org/2000/svg">
<path d="M1.66667 7.91667C1.66667 8.17783 2.05084 8.632 2.94206 9.07758C4.09504 9.6541 5.73064 10 7.5 10C9.26933 10 10.9049 9.6541 12.0579 9.07758C12.9492 8.632 13.3333 8.17783 13.3333 7.91667V6.10725C11.9583 6.95683 9.8561 7.5 7.5 7.5C5.14394 7.5 3.04163 6.95683 1.66667 6.10725V7.91667ZM13.3333 10.2739C11.9583 11.1235 9.8561 11.6667 7.5 11.6667C5.14394 11.6667 3.04163 11.1235 1.66667 10.2739V12.0833C1.66667 12.3445 2.05084 12.7987 2.94206 13.2443C4.09504 13.8208 5.73064 14.1667 7.5 14.1667C9.26933 14.1667 10.9049 13.8208 12.0579 13.2443C12.9492 12.7987 13.3333 12.3445 13.3333 12.0833V10.2739ZM0 12.0833V3.75C0 1.67893 3.35787 0 7.5 0C11.6422 0 15 1.67893 15 3.75V12.0833C15 14.1544 11.6422 15.8333 7.5 15.8333C3.35787 15.8333 0 14.1544 0 12.0833ZM7.5 5.83333C9.26933 5.83333 10.9049 5.48743 12.0579 4.91094C12.9492 4.46533 13.3333 4.01118 13.3333 3.75C13.3333 3.48882 12.9492 3.03467 12.0579 2.58906C10.9049 2.01257 9.26933 1.66667 7.5 1.66667C5.73064 1.66667 4.09504 2.01257 2.94206 2.58906C2.05084 3.03467 1.66667 3.48882 1.66667 3.75C1.66667 4.01118 2.05084 4.46533 2.94206 4.91094C4.09504 5.48743 5.73064 5.83333 7.5 5.83333Z" fill="#5C5C5C"/>
</svg>
