<svg width="16" height="20" viewBox="0 0 16 20" fill="none" xmlns="http://www.w3.org/2000/svg">
<path d="M1.15256 2.35496L8 0.833313L14.8474 2.35496C15.2287 2.4397 15.5 2.77787 15.5 3.16845V11.4907C15.5 13.1625 14.6645 14.7236 13.2735 15.651L8 19.1666L2.7265 15.651C1.33551 14.7236 0.5 13.1625 0.5 11.4907V3.16845C0.5 2.77787 0.771275 2.4397 1.15256 2.35496ZM2.16667 3.83693V11.4907C2.16667 12.6052 2.72367 13.646 3.651 14.2642L8 17.1636L12.349 14.2642C13.2763 13.646 13.8333 12.6052 13.8333 11.4907V3.83693L8 2.54064L2.16667 3.83693ZM8.83333 8.33331H11.3333L7.16667 14.1666V9.99998H4.66667L8.83333 4.16665V8.33331Z" fill="#5C5C5C"/>
</svg>
