<svg width="66" height="20" viewBox="0 0 66 20" fill="none" xmlns="http://www.w3.org/2000/svg">
<path d="M63.861 2.89117C63.6746 2.89117 63.4923 2.83588 63.3373 2.73231C63.1823 2.62874 63.0615 2.48152 62.9901 2.30928C62.9188 2.13705 62.9001 1.94752 62.9365 1.76467C62.9729 1.58183 63.0627 1.41387 63.1945 1.28205C63.3263 1.15022 63.4943 1.06045 63.6771 1.02408C63.8599 0.987708 64.0495 1.00637 64.2217 1.07772C64.3939 1.14906 64.5412 1.26988 64.6447 1.42489C64.7483 1.5799 64.8036 1.76214 64.8036 1.94857C64.8036 2.07236 64.7793 2.19495 64.7319 2.30933C64.6846 2.42371 64.6151 2.52764 64.5276 2.61517C64.4401 2.70271 64.3361 2.77214 64.2218 2.8195C64.1074 2.86685 63.9848 2.89121 63.861 2.89117ZM54.501 18.9937C54.3145 18.9938 54.1322 18.9387 53.9771 18.8352C53.8219 18.7318 53.701 18.5846 53.6295 18.4124C53.558 18.2402 53.5392 18.0506 53.5755 17.8677C53.6118 17.6848 53.7015 17.5168 53.8333 17.3849C53.965 17.253 54.133 17.1631 54.3159 17.1266C54.4987 17.0902 54.6883 17.1088 54.8606 17.1801C55.0329 17.2514 55.1802 17.3723 55.2838 17.5273C55.3874 17.6823 55.4427 17.8646 55.4427 18.0511C55.4428 18.3009 55.3436 18.5406 55.167 18.7174C54.9904 18.8941 54.7509 18.9935 54.501 18.9937ZM63.861 0.223267C63.4034 0.223267 62.9646 0.405039 62.641 0.728595C62.3175 1.05215 62.1357 1.49099 62.1357 1.94857C62.1408 2.14502 62.18 2.3391 62.2515 2.52217L54.1575 16.3948C53.7712 16.4686 53.4225 16.674 53.1706 16.9759C52.9186 17.2779 52.7791 17.6578 52.7757 18.0511C52.7757 18.5086 52.9574 18.9473 53.2809 19.2708C53.6044 19.5943 54.0432 19.7761 54.5007 19.7761C54.9582 19.7761 55.397 19.5943 55.7205 19.2708C56.044 18.9473 56.2257 18.5086 56.2257 18.0511C56.2193 17.8664 56.1827 17.684 56.1174 17.5111L64.2522 3.59467C64.6281 3.51178 64.9647 3.30384 65.2071 3.00484C65.4495 2.70584 65.5833 2.33346 65.5866 1.94857C65.5866 1.72197 65.542 1.4976 65.4552 1.28825C65.3685 1.07891 65.2414 0.888702 65.0812 0.728489C64.9209 0.568276 64.7307 0.441198 64.5213 0.354511C64.312 0.267824 64.0876 0.223227 63.861 0.223267" fill="#0C544C"/>
<path d="M56.8017 2.89117C56.6152 2.89134 56.4329 2.83621 56.2778 2.73275C56.1227 2.62928 56.0017 2.48213 55.9302 2.30991C55.8587 2.13769 55.8399 1.94813 55.8762 1.76523C55.9125 1.58232 56.0022 1.41428 56.134 1.28237C56.2658 1.15045 56.4337 1.06059 56.6166 1.02414C56.7995 0.987701 56.989 1.00632 57.1613 1.07763C57.3336 1.14895 57.4809 1.26976 57.5845 1.42479C57.6881 1.57982 57.7434 1.7621 57.7434 1.94857C57.7435 2.19843 57.6443 2.43809 57.4677 2.61486C57.2911 2.79162 57.0516 2.89101 56.8017 2.89117ZM47.4417 18.9937C47.2553 18.9937 47.073 18.9384 46.918 18.8348C46.763 18.7312 46.6422 18.584 46.5709 18.4118C46.4995 18.2395 46.4809 18.05 46.5172 17.8672C46.5536 17.6843 46.6434 17.5164 46.7752 17.3845C46.907 17.2527 47.075 17.1629 47.2578 17.1266C47.4407 17.0902 47.6302 17.1089 47.8024 17.1802C47.9747 17.2516 48.1219 17.3724 48.2255 17.5274C48.329 17.6824 48.3843 17.8646 48.3843 18.0511C48.3842 18.301 48.2849 18.5407 48.1081 18.7175C47.9314 18.8943 47.6917 18.9936 47.4417 18.9937ZM56.8017 0.223267C56.5751 0.223227 56.3508 0.267827 56.1414 0.354517C55.9321 0.441207 55.7419 0.568291 55.5817 0.728507C55.4214 0.888724 55.2944 1.07894 55.2077 1.28828C55.121 1.49762 55.0764 1.72199 55.0764 1.94857C55.0815 2.14503 55.1207 2.3391 55.1922 2.52217L47.0982 16.3948C46.7118 16.4685 46.3629 16.6738 46.1109 16.9758C45.8589 17.2778 45.7193 17.6577 45.7158 18.0511C45.7115 18.2803 45.753 18.5081 45.8378 18.7211C45.9225 18.9342 46.0489 19.1282 46.2095 19.2918C46.3701 19.4554 46.5617 19.5854 46.7731 19.6741C46.9846 19.7628 47.2115 19.8085 47.4408 19.8085C47.6701 19.8085 47.8971 19.7628 48.1085 19.6741C48.3199 19.5854 48.5115 19.4554 48.6721 19.2918C48.8327 19.1282 48.9591 18.9342 49.0439 18.7211C49.1286 18.5081 49.1701 18.2803 49.1658 18.0511C49.1594 17.8664 49.1228 17.684 49.0575 17.5111L57.1923 3.59317C57.5682 3.51028 57.9048 3.30234 58.1472 3.00334C58.3896 2.70434 58.5234 2.33196 58.5267 1.94707C58.5262 1.48985 58.3442 1.05154 58.0208 0.728346C57.6974 0.405157 57.2589 0.223505 56.8017 0.223267Z" fill="#073551"/>
<path d="M43.9098 5.77568C44.0962 5.77568 44.2785 5.83096 44.4335 5.93454C44.5885 6.03811 44.7093 6.18533 44.7807 6.35756C44.852 6.5298 44.8707 6.71933 44.8343 6.90217C44.7979 7.08502 44.7082 7.25297 44.5763 7.3848C44.4445 7.51662 44.2765 7.6064 44.0937 7.64277C43.9109 7.67914 43.7213 7.66047 43.5491 7.58913C43.3769 7.51779 43.2296 7.39697 43.1261 7.24196C43.0225 7.08695 42.9672 6.90471 42.9672 6.71828C42.9673 6.46831 43.0666 6.2286 43.2434 6.05185C43.4201 5.8751 43.6598 5.77576 43.9098 5.77568ZM43.9098 8.44358C44.3674 8.44358 44.8062 8.26181 45.1298 7.93825C45.4533 7.6147 45.6351 7.17586 45.6351 6.71828C45.6136 6.26764 45.4249 5.84118 45.1059 5.52217C44.7869 5.20315 44.3605 5.01448 43.9098 4.99298C43.7931 5.00381 43.6779 5.02724 43.5663 5.06288C43.18 5.13649 42.8312 5.34171 42.5793 5.6436C42.3273 5.94549 42.1878 6.32538 42.1845 6.71858C42.1845 7.17616 42.3663 7.615 42.6898 7.93855C43.0134 8.26211 43.4522 8.44388 43.9098 8.44388" fill="#073551"/>
<path d="M42.9675 12.7468C42.9673 12.5603 43.0225 12.378 43.1259 12.2228C43.2294 12.0677 43.3765 11.9467 43.5488 11.8753C43.721 11.8038 43.9105 11.785 44.0934 11.8213C44.2764 11.8575 44.4444 11.9472 44.5763 12.079C44.7082 12.2108 44.7981 12.3788 44.8345 12.5616C44.871 12.7445 44.8524 12.9341 44.781 13.1064C44.7097 13.2787 44.5889 13.4259 44.4339 13.5295C44.2789 13.6331 44.0966 13.6885 43.9101 13.6885C43.6602 13.6885 43.4206 13.5894 43.2438 13.4128C43.0671 13.2362 42.9677 12.9966 42.9675 12.7468ZM45.6354 12.7468C45.6139 12.2961 45.4252 11.8697 45.1062 11.5506C44.7872 11.2316 44.3607 11.043 43.9101 11.0215C43.7935 11.0323 43.6784 11.0555 43.5666 11.0905C43.1804 11.1643 42.8316 11.3697 42.5797 11.6717C42.3278 11.9736 42.1883 12.3535 42.1848 12.7468C42.1805 12.976 42.222 13.2038 42.3068 13.4168C42.3915 13.6298 42.5179 13.8238 42.6785 13.9875C42.8391 14.1511 43.0307 14.2811 43.2421 14.3698C43.4536 14.4585 43.6805 14.5042 43.9098 14.5042C44.1391 14.5042 44.3661 14.4585 44.5775 14.3698C44.7889 14.2811 44.9805 14.1511 45.1411 13.9875C45.3017 13.8238 45.4281 13.6298 45.5129 13.4168C45.5976 13.2038 45.6391 12.976 45.6348 12.7468" fill="#073551"/>
<path d="M0.413696 14.6821C0.413696 16.0297 0.665996 16.6921 1.7169 17.5585L3.3369 18.9085C4.3641 19.7515 4.8894 19.7752 6.1686 19.7752H9.6423C10.3725 19.7752 11.1501 19.615 11.1501 18.6799C11.1501 17.7181 10.2834 17.5816 9.6423 17.5816H5.7834C5.31301 17.5479 4.86833 17.3541 4.5234 17.0326L3.1995 15.9136C2.8551 15.6406 2.6058 15.412 2.6058 14.9785V12.2596C2.6058 11.8261 2.8551 11.5978 3.1995 11.3215L4.5234 10.2025C4.86928 9.88273 5.31359 9.69009 5.7834 9.65616H9.6423C10.2834 9.65616 11.1501 9.51666 11.1501 8.55786C11.1501 7.62276 10.3725 7.46255 9.6423 7.46255H6.1695C4.89 7.46255 4.3647 7.48626 3.3378 8.32926L1.7178 9.67686C0.667796 10.5469 0.414596 11.2087 0.414596 12.5569L0.413696 14.6821Z" fill="#073551"/>
<path d="M23.0298 8.97096C23.0298 8.21706 22.8696 7.46316 21.9345 7.46316C20.9994 7.46316 20.8353 8.21676 20.8353 8.97096V15.3442L17.6154 17.3773C17.4127 17.5132 17.1736 17.5846 16.9296 17.5822H16.1994C15.6741 17.5822 15.1041 17.4457 14.9199 17.125C14.7357 16.8043 14.715 16.2106 14.6913 15.709L14.4627 8.97066C14.439 8.26116 14.3262 7.46286 13.3881 7.46286C12.3849 7.46286 12.2691 8.30886 12.2928 9.10746L12.5214 16.006C12.5658 17.1934 12.5451 18.1312 13.5276 18.976C14.0839 19.4838 14.808 19.7686 15.5613 19.7758H17.1813C17.775 19.7758 18.3687 19.5028 19.0782 19.0456L20.8593 17.8789V18.244C20.8593 18.9979 21.0195 19.7758 21.9546 19.7758C23.1213 19.7758 23.0292 18.6568 23.0292 18.1558L23.0298 8.97096Z" fill="#073551"/>
<path d="M24.1725 18.2668C24.1725 19.0207 24.3327 19.7746 25.2678 19.7746C26.2029 19.7746 26.3661 19.0207 26.3661 18.2668V12.7168L29.4261 10.1818C29.8161 9.86107 30.1119 9.65647 30.5214 9.65647H31.1625C31.6878 9.65647 32.2125 9.65647 32.4864 10.0465C32.674 10.3293 32.755 10.6695 32.715 11.0065C32.715 11.713 33.0357 12.3541 33.834 12.3541C34.7721 12.3541 34.9086 11.5765 34.9086 10.8223C34.9333 10.361 34.8583 9.89985 34.6888 9.47017C34.5192 9.04049 34.2591 8.65238 33.9261 8.33227C33.6474 8.04769 33.3129 7.82379 32.9436 7.67464C32.5742 7.52549 32.178 7.45431 31.7799 7.46557H30.0204C29.3346 7.46557 28.6965 7.89907 28.0791 8.40067L26.3664 9.81967V8.92627C26.3664 8.19607 26.1378 7.46587 25.2681 7.46587C24.2649 7.46587 24.1728 8.28817 24.1728 9.08587L24.1725 18.2668Z" fill="#073551"/>
<path d="M38.9277 4.47125C38.9277 3.16805 38.5626 2.93945 37.3077 2.93945H35.0019C34.2687 2.93945 33.4941 3.09965 33.4941 4.03475C33.4941 4.99655 34.3608 5.13305 35.0019 5.13305H36.7377V17.5831H35.0019C34.2687 17.5831 33.4941 17.7433 33.4941 18.6814C33.4941 19.6414 34.3608 19.7767 35.0019 19.7767H40.5735C41.2146 19.7767 42.0813 19.6402 42.0813 18.6814C42.0813 17.7433 41.3067 17.5831 40.5735 17.5831H38.9277V4.47125Z" fill="#073551"/>
</svg>
