<svg width="15" height="20" viewBox="0 0 15 20" fill="none" xmlns="http://www.w3.org/2000/svg">
<path d="M7.32503 10.4495C6.82603 9.645 6.46403 8.978 5.96253 7.722C5.11453 5.6005 11.12 3.6835 8.68503 0C9.74053 2.5445 4.89653 4.1175 4.44653 6.2365C4.03503 8.1855 7.32253 10.4495 7.32503 10.4495Z" fill="#F44336"/>
<path d="M7.43901 6.63394C7.34301 7.89194 8.55351 8.56244 8.58851 9.48144C8.61651 10.2294 7.86501 10.8529 7.86501 10.8529C7.86501 10.8529 9.22901 10.5849 9.65451 9.44394C10.127 8.17694 8.73751 7.30944 8.88051 6.29494C9.01401 5.32594 11.896 3.52344 11.896 3.52344C11.896 3.52344 7.65551 3.80444 7.43901 6.63394Z" fill="#F44336"/>
<path d="M11.542 10.5291C12.419 10.3321 13.1585 10.8906 13.1585 11.5341C13.1585 12.9846 11.148 14.3556 11.148 14.3556C11.148 14.3556 14.2605 13.9846 14.2605 11.6031C14.2605 10.0281 12.732 9.63457 11.542 10.5291ZM10.0645 11.6991C10.0645 11.6991 11.035 11.0076 11.2935 10.7481C8.91199 11.2536 3.47449 11.3216 3.47449 10.8826C3.47449 10.4781 5.22799 10.0636 5.22799 10.0636C5.22799 10.0636 1.34149 10.0076 1.34149 11.1541C1.34149 12.3491 6.42899 12.4346 10.0645 11.6991Z" fill="#1565C0"/>
<path d="M9.46753 12.7856C7.21303 13.5351 3.06053 13.2956 4.29053 12.2891C3.69153 12.2891 2.80353 12.7706 2.80353 13.2336C2.80353 14.1621 7.29453 14.8791 10.6185 13.5196L9.46753 12.7856Z" fill="#1565C0"/>
<path d="M4.84298 14.3711C4.02498 14.3711 3.49548 14.8981 3.49548 15.2821C3.49548 16.4776 8.37548 16.5981 10.309 15.3846L9.07998 14.5686C7.63548 15.2036 4.00698 15.2911 4.84298 14.3711Z" fill="#1565C0"/>
<path d="M13.6405 16.3169C13.6405 15.8489 13.113 15.6284 12.924 15.5229C14.038 18.2094 1.7655 18.0009 1.7655 16.4149C1.7655 16.0544 2.669 15.7014 3.504 15.8684L2.794 15.4489C1.13 15.1879 0 15.9194 0 16.5094C0 19.2609 13.6405 19.1284 13.6405 16.3169Z" fill="#1565C0"/>
<path d="M15 17.3047C12.927 19.3522 7.67052 20.0982 2.38452 18.8332C7.67052 21.0847 14.975 19.8167 15 17.3047Z" fill="#1565C0"/>
</svg>
