<svg width="129" height="28" viewBox="0 0 129 28" fill="none" xmlns="http://www.w3.org/2000/svg">
<path d="M11.6714 4.5H0L9.22857 14H20.9L11.6714 4.5Z" fill="#004520"/>
<path d="M11.6714 23.5H0L9.22857 14H20.9L11.6714 23.5Z" fill="#004520"/>
<path d="M31.241 23V4.38875H37.8749C39.3228 4.38875 40.5224 4.65229 41.4735 5.17936C42.4247 5.70644 43.1366 6.42738 43.6091 7.34219C44.0817 8.25095 44.3179 9.27481 44.3179 10.4138C44.3179 11.5588 44.0786 12.5887 43.6 13.5035C43.1275 14.4123 42.4126 15.1332 41.4554 15.6664C40.5042 16.1934 39.3077 16.457 37.8658 16.457H33.3039V14.0761H37.6113C38.5262 14.0761 39.2683 13.9185 39.8378 13.6035C40.4073 13.2824 40.8253 12.8462 41.0919 12.2949C41.3584 11.7436 41.4917 11.1165 41.4917 10.4138C41.4917 9.71101 41.3584 9.087 41.0919 8.54175C40.8253 7.99649 40.4042 7.56938 39.8287 7.26041C39.2592 6.95143 38.508 6.79694 37.575 6.79694H34.049V23H31.241ZM46.9903 23H44.0095L50.7071 4.38875H53.9513L60.6488 23H57.6681L52.4064 7.76931H52.261L46.9903 23ZM47.4901 15.7118H57.1592V18.0746H47.4901V15.7118ZM64.6911 23H61.7104L68.4079 4.38875H71.6521L78.3496 23H75.3689L70.1072 7.76931H69.9618L64.6911 23ZM65.1909 15.7118H74.86V18.0746H65.1909V15.7118ZM77.4846 4.38875H80.6743L85.5362 12.8492H85.7361L90.5979 4.38875H93.7876L87.0356 15.6936V23H84.2366V15.6936L77.4846 4.38875ZM96.2214 23V4.38875H107.89V6.80603H99.0294V12.4766H107.281V14.8848H99.0294V20.5827H107.999V23H96.2214ZM117.448 23H111.423V4.38875H117.639C119.463 4.38875 121.029 4.76134 122.337 5.50651C123.646 6.24563 124.649 7.30887 125.345 8.69623C126.048 10.0775 126.399 11.7345 126.399 13.6671C126.399 15.6058 126.045 17.2718 125.336 18.6653C124.633 20.0587 123.616 21.131 122.283 21.8822C120.95 22.6274 119.338 23 117.448 23ZM114.231 20.5464H117.294C118.711 20.5464 119.89 20.2798 120.829 19.7467C121.768 19.2075 122.471 18.429 122.937 17.4112C123.404 16.3873 123.637 15.1393 123.637 13.6671C123.637 12.207 123.404 10.9681 122.937 9.95031C122.477 8.93251 121.789 8.16007 120.874 7.63299C119.959 7.10592 118.823 6.84238 117.466 6.84238H114.231V20.5464Z" fill="#004520"/>
</svg>
