<svg width="24" height="10" viewBox="0 0 24 10" fill="none" xmlns="http://www.w3.org/2000/svg">
<path d="M8.602 3.56144L6.1485 4.91894C6.0565 4.96944 6 5.06344 6 5.16494V7.88144C6 7.98294 6.0565 8.07644 6.1485 8.12744L8.6025 9.48594C8.694 9.53644 8.8075 9.53644 8.899 9.48594L11.3525 8.12744C11.4435 8.07644 11.5 7.98294 11.5 7.88144V5.16494C11.5 5.06344 11.4435 4.96994 11.3515 4.91894L8.8985 3.56144C8.8525 3.53594 8.801 3.52344 8.75 3.52344C8.6985 3.52344 8.6475 3.53594 8.6015 3.56144M21.2255 6.00694L20.8165 6.23294C20.801 6.24144 20.792 6.25694 20.792 6.27394V6.72694C20.792 6.74394 20.8015 6.75944 20.8165 6.76794L21.2255 6.99444C21.241 7.00294 21.2595 7.00294 21.275 6.99444L21.684 6.76794C21.699 6.75944 21.7085 6.74394 21.7085 6.72694V6.27394C21.7085 6.25694 21.699 6.24144 21.6835 6.23294L21.2745 6.00694C21.267 6.00244 21.2585 6.00044 21.25 6.00044C21.2415 6.00044 21.233 6.00244 21.2255 6.00694Z" fill="#388E3C"/>
<path d="M17.8755 0.681884L16.681 0.0153837C16.6435 -0.00561634 16.5975 -0.00511621 16.5605 0.0168838C16.5235 0.0388838 16.5005 0.0783836 16.5005 0.121384L16.5 4.14738L15.3985 3.53788C15.3525 3.51238 15.301 3.49988 15.25 3.49988C15.199 3.49988 15.1475 3.51238 15.1015 3.53788H15.102L12.6485 4.89538C12.5565 4.94588 12.5 5.03988 12.5 5.14088V7.85738C12.5 7.95888 12.5565 8.05238 12.6485 8.10338L15.1025 9.46188C15.194 9.51238 15.3075 9.51238 15.399 9.46188L17.8525 8.10338C17.9435 8.05288 18 7.95888 18 7.85738V0.893884C18 0.805884 17.952 0.724884 17.8755 0.681884ZM16.433 7.22888L15.318 7.84638C15.2765 7.86938 15.225 7.86938 15.1835 7.84638L14.068 7.22888C14.0255 7.20588 14 7.16288 14 7.11688V5.88188C14 5.83588 14.0255 5.79338 14.0675 5.76988L15.183 5.15288H15.1825C15.2035 5.14138 15.2265 5.13588 15.25 5.13588C15.2735 5.13588 15.2965 5.14188 15.3175 5.15288L16.4325 5.76988C16.4745 5.79338 16.5 5.83638 16.5 5.88238V7.11738C16.5 7.16288 16.4745 7.20588 16.433 7.22888Z" fill="#37474F"/>
<path d="M8.602 3.56144L6 7.88144C6 7.98294 6.0565 8.07644 6.1485 8.12744L8.6025 9.48594C8.694 9.53644 8.8075 9.53644 8.899 9.48594L11.5 5.16494C11.5 5.06344 11.4435 4.96994 11.3515 4.91894L8.8985 3.56144C8.8525 3.53594 8.801 3.52344 8.75 3.52344C8.6985 3.52344 8.6475 3.53594 8.6015 3.56144" fill="#2E7D32"/>
<path d="M8.602 3.56144L6.1485 4.91894C6.0565 4.96944 6 5.06344 6 5.16494L8.602 9.48594C8.6935 9.53644 8.807 9.53644 8.8985 9.48594L11.352 8.12744C11.4435 8.07644 11.5 7.98294 11.5 7.88144L8.8985 3.56144C8.8525 3.53594 8.801 3.52344 8.75 3.52344C8.6985 3.52344 8.6475 3.53594 8.6015 3.56144" fill="#4CAF50"/>
<path d="M23.8515 4.8955L21.3985 3.538C21.3525 3.5125 21.301 3.5 21.25 3.5C21.199 3.5 21.1475 3.5125 21.1015 3.538H21.102L18.6485 4.8955C18.557 4.946 18.5 5.042 18.5 5.147V7.8525C18.5 7.957 18.557 8.0535 18.6485 8.104L21.1025 9.4625C21.1945 9.5135 21.307 9.5135 21.399 9.4625L22.5305 8.836C22.634 8.7785 22.6335 8.63 22.5295 8.573L20.0675 7.2295C20.026 7.206 20 7.1625 20 7.1155V5.8825C20 5.8365 20.025 5.794 20.065 5.772L21.1825 5.154H21.182C21.203 5.1425 21.226 5.137 21.2495 5.137C21.273 5.137 21.296 5.143 21.317 5.154L22.4345 5.7725C22.4745 5.7945 22.4995 5.837 22.4995 5.883V6.889C22.4995 6.932 22.5225 6.972 22.56 6.9935C22.5975 7.0145 22.6435 7.0145 22.681 6.993L23.88 6.2965C23.954 6.2535 24 6.174 24 6.088V5.148C24 5.0425 23.943 4.946 23.8515 4.8955ZM5.3515 4.8955L2.8985 3.538C2.8525 3.5125 2.801 3.5 2.75 3.5C2.699 3.5 2.6475 3.5125 2.6015 3.538H2.602L0.1485 4.8955C0.057 4.946 0 5.042 0 5.147V8.8795C0 8.9225 0.023 8.9625 0.0605 8.984C0.098 9.005 0.144 9.005 0.1815 8.9835L1.3805 8.287C1.4545 8.244 1.5 8.1645 1.5 8.0785V5.882C1.5 5.836 1.525 5.7935 1.565 5.7715L2.6825 5.1535C2.7035 5.142 2.7265 5.1365 2.75 5.1365C2.7735 5.1365 2.7965 5.1425 2.8175 5.1535L3.935 5.772C3.975 5.794 4 5.8365 4 5.8825V8.079C4 8.165 4.0455 8.2445 4.12 8.2875L5.319 8.984C5.3565 9.0055 5.4025 9.0055 5.44 8.9845C5.477 8.9625 5.5 8.9225 5.5 8.8795V5.1475C5.5 5.0425 5.443 4.946 5.3515 4.8955Z" fill="#37474F"/>
</svg>
