<svg width="24" height="14" viewBox="0 0 24 14" fill="none" xmlns="http://www.w3.org/2000/svg">
<path d="M12 13.0523C5.46602 13.0523 0.150024 10.1588 0.150024 6.60234C0.150024 3.04584 5.46602 0.152344 12 0.152344C18.534 0.152344 23.85 3.04584 23.85 6.60234C23.85 10.1588 18.534 13.0523 12 13.0523Z" fill="#DCD5F2"/>
<path d="M12 0.3C18.4515 0.3 23.7 3.1263 23.7 6.6C23.7 10.0737 18.4515 12.9 12 12.9C5.5485 12.9 0.3 10.0737 0.3 6.6C0.3 3.1263 5.5485 0.3 12 0.3ZM12 0C5.3727 0 0 2.955 0 6.6C0 10.245 5.3727 13.2 12 13.2C18.6273 13.2 24 10.245 24 6.6C24 2.955 18.6273 0 12 0Z" fill="#8B75A1"/>
<path d="M7.53355 4.80313C8.05105 4.80313 8.49775 4.98973 8.75875 5.31493C8.98345 5.59513 9.05305 5.96623 8.95915 6.38803C8.70685 7.52533 8.21845 7.80313 6.47095 7.80313H5.22895L5.75395 4.80313H7.53355ZM7.53355 4.20312H5.24995L4.19995 10.2031H4.79995L5.11675 8.40313H6.47125C8.23015 8.40313 9.18715 8.13163 9.54505 6.51792C9.85255 5.13192 8.83075 4.20312 7.53355 4.20312ZM18.3336 4.80313C18.8511 4.80313 19.2978 4.98973 19.5588 5.31493C19.7835 5.59513 19.8531 5.96623 19.7592 6.38803C19.5069 7.52533 19.0185 7.80313 17.271 7.80313H16.029L16.554 4.80313H18.3336ZM18.3336 4.20312H16.05L15 10.2031H15.6L15.9168 8.40313H17.2713C19.0302 8.40313 19.9872 8.13163 20.3451 6.51792C20.6526 5.13192 19.6308 4.20312 18.3336 4.20312Z" fill="#36404D"/>
<path d="M14.7216 4.56594C14.4579 4.30674 13.9932 4.20234 13.3002 4.20234H11.6388L12 2.40234H11.37L10.2 8.40234H10.797L11.5134 4.80234H11.6391H13.3005C14.0019 4.80234 14.2287 4.92234 14.301 4.99344C14.4039 5.09484 14.4282 5.36124 14.3661 5.70234L13.836 8.40234H14.4678L14.9556 5.81334C15.0597 5.24094 14.9808 4.82094 14.7216 4.56594Z" fill="#36404D"/>
</svg>
