<svg width="19" height="19" viewBox="0 0 19 19" fill="none" xmlns="http://www.w3.org/2000/svg">
<path d="M9.74223 3.65835e-05C8.96473 0.00253658 8.42573 0.0710366 7.77423 0.183537C5.85023 0.518537 5.49973 1.22204 5.49973 2.51854V4.50004H9.99973V5.50004H5.32873H3.15373C1.83573 5.50004 0.682226 6.12104 0.316726 7.60954C-0.0962745 9.31804 -0.114775 10.388 0.316726 12.172C0.644226 13.5025 1.36573 14.5 2.68423 14.5H4.50023V11.948C4.50023 10.465 5.84323 9.00004 7.38223 9.00004H11.0002C12.2617 9.00004 13.5002 8.06904 13.5002 6.81154V2.51854C13.5002 1.29904 12.6207 0.387036 11.3912 0.182536C11.4217 0.179536 10.5132 -0.00296342 9.74223 3.65835e-05ZM7.25023 2.00004C7.66073 2.00004 8.00023 2.33854 8.00023 2.75104C8.00023 3.16754 7.66073 3.50004 7.25023 3.50004C6.83173 3.50004 6.50023 3.16804 6.50023 2.75104C6.50023 2.34004 6.83173 2.00004 7.25023 2.00004Z" fill="#0277BD"/>
<path d="M9.25776 19C10.0353 18.9975 10.5743 18.929 11.2258 18.8165C13.1498 18.4815 13.5003 17.778 13.5003 16.4815V14.5H9.00026V13.5H13.6718H15.8468C17.1648 13.5 18.3183 12.879 18.6838 11.3905C19.0968 9.682 19.1153 8.612 18.6838 6.828C18.3558 5.4975 17.6343 4.5 16.3158 4.5H14.4998V7.052C14.4998 8.535 13.1568 10 11.6178 10H7.99976C6.73826 10 5.49976 10.931 5.49976 12.1885V16.4815C5.49976 17.701 6.37926 18.613 7.60876 18.8175C7.57826 18.8205 8.48676 19.003 9.25776 19ZM11.7503 17C11.3398 17 11.0003 16.6615 11.0003 16.249C11.0003 15.8325 11.3398 15.5 11.7503 15.5C12.1688 15.5 12.5003 15.832 12.5003 16.249C12.5003 16.66 12.1683 17 11.7503 17Z" fill="#FFC107"/>
</svg>
