<svg width="19" height="19" viewBox="0 0 19 19" fill="none" xmlns="http://www.w3.org/2000/svg">
<path d="M18.0129 4.01172L17.0129 17.0117L4.01294 18.0117L18.0129 4.01172Z" fill="#BF2336"/>
<path d="M11.0129 11.0117L17.0129 17.0117L18.0129 4.01172L11.0129 11.0117Z" fill="#B31523"/>
<path d="M4.91296 4.91296C0.462965 9.31296 -1.28704 14.713 1.01296 17.013C3.31296 19.313 8.71297 17.563 13.113 13.163C17.513 8.76296 19.313 3.31296 17.013 1.01296C14.713 -1.28704 9.31296 0.462965 4.91296 4.91296Z" fill="#CF1928"/>
<path d="M2.01294 5.51172L5.51294 2.01172L9.51294 0.0117188L12.5129 2.01172L11.0129 6.51172L6.51294 10.5117L2.01294 12.0117L0.0129395 9.01172L2.01294 5.51172Z" fill="#D9414F"/>
<path d="M12.5129 2.01172L9.51294 0.0117188H15.0129L12.5129 2.01172ZM18.0129 4.51172L12.5129 2.01172L11.0129 6.51172L18.0129 4.51172ZM6.51294 10.5117L13.1129 13.1117L11.0129 6.51172L6.51294 10.5117ZM2.01294 12.0117L4.01294 18.0117L6.51294 10.5117L2.01294 12.0117ZM0.0129395 9.01172V14.5117L2.01294 12.0117L0.0129395 9.01172Z" fill="#EB6773"/>
</svg>
